<svg width="400" height="450" viewBox="0 0 400 450" fill="none" xmlns="http://www.w3.org/2000/svg">
  <path d="M200 420C200 420 360 340 360 140V60L200 20L40 60V140C40 340 200 420 200 420Z" fill="#EF3E36"/>
  <path d="M200 385C200 385 325 315 325 150V80L200 45L75 80V150C75 315 200 385 200 385Z" fill="white"/>

  <g stroke="#EF3E36" stroke-width="4">
    <circle cx="200" cy="220" r="45" stroke-dasharray="12 8" fill="none"/>
    <circle cx="200" cy="220" r="25" fill="none" stroke-width="5"/>
    <circle cx="200" cy="220" r="4" fill="#EF3E36" stroke="none"/>
    
    <line x1="200" y1="165" x2="200" y2="185" />
    <line x1="200" y1="255" x2="200" y2="275" />
    <line x1="145" y1="220" x2="165" y2="220" />
    <line x1="235" y1="220" x2="255" y2="220" />
  </g>
</svg>
